<?xml version="1.0" standalone="no"?>
<!DOCTYPE svg PUBLIC "-//W3C//DTD SVG 20010904//EN"
 "http://www.w3.org/TR/2001/REC-SVG-20010904/DTD/svg10.dtd">
<svg version="1.0" xmlns="http://www.w3.org/2000/svg"
 width="64.000000pt" height="64.000000pt" viewBox="0 0 64.000000 64.000000"
 preserveAspectRatio="xMidYMid meet">

<g transform="translate(0.000000,64.000000) scale(0.100000,-0.100000)"
fill="#000000" stroke="none">
<path d="M15 571 c-7 -12 9 -26 75 -71 29 -19 61 -43 71 -52 18 -17 19 -17 19
17 0 52 40 90 83 80 18 -3 43 -6 57 -6 14 0 39 3 57 6 26 6 36 2 59 -20 51
-52 17 -149 -72 -201 l-44 -26 -45 26 c-24 15 -51 36 -59 48 -9 12 -19 19 -23
15 -10 -11 44 -63 87 -82 34 -15 44 -16 71 -5 64 27 119 91 119 140 0 11 6 20
13 20 11 0 94 55 135 90 23 20 2 30 -62 30 -48 0 -69 -5 -88 -20 -18 -13 -28
-16 -36 -8 -6 6 -28 8 -54 4 -53 -8 -63 -8 -116 0 -26 4 -48 2 -54 -4 -8 -8
-18 -5 -36 8 -19 15 -40 20 -88 20 -34 0 -65 -4 -69 -9z m154 -29 c14 -26 2
-62 -20 -62 -24 0 -33 17 -12 23 10 3 4 5 -14 6 -36 1 -53 17 -26 24 13 3 11
5 -7 7 -14 1 -34 5 -45 10 -14 6 0 9 47 9 56 1 69 -2 77 -17z m426 8 c-11 -5
-31 -9 -45 -10 -18 -2 -20 -4 -7 -7 27 -7 10 -23 -26 -24 -18 -1 -24 -3 -14
-6 21 -6 12 -23 -12 -23 -22 0 -34 36 -20 62 8 15 21 18 77 17 47 0 61 -3 47
-9z"/>
<path d="M217 512 c-17 -19 -24 -92 -8 -92 4 0 6 11 4 24 -6 30 12 65 40 76
22 9 22 9 1 9 -11 1 -28 -7 -37 -17z"/>
<path d="M215 400 c3 -5 8 -10 11 -10 2 0 4 5 4 10 0 6 -5 10 -11 10 -5 0 -7
-4 -4 -10z"/>
<path d="M173 284 c-3 -8 -1 -20 6 -27 8 -8 11 -4 11 16 0 30 -7 35 -17 11z"/>
<path d="M450 255 c0 -28 4 -44 10 -40 6 3 10 21 10 40 0 19 -4 37 -10 40 -6
4 -10 -12 -10 -40z"/>
<path d="M247 273 c-11 -10 -8 -61 3 -68 6 -4 10 10 10 34 0 42 -2 46 -13 34z"/>
<path d="M380 266 c0 -9 5 -16 10 -16 6 0 10 4 10 9 0 6 -4 13 -10 16 -5 3
-10 -1 -10 -9z"/>
<path d="M310 240 c0 -5 5 -10 10 -10 6 0 10 5 10 10 0 6 -4 10 -10 10 -5 0
-10 -4 -10 -10z"/>
<path d="M175 218 c-4 -10 -4 -26 0 -35 8 -17 8 -17 12 0 3 9 3 25 0 35 -4 16
-4 16 -12 0z"/>
<path d="M380 195 c0 -14 5 -25 10 -25 6 0 10 11 10 25 0 14 -4 25 -10 25 -5
0 -10 -11 -10 -25z"/>
<path d="M310 175 c0 -19 5 -35 10 -35 6 0 10 16 10 35 0 19 -4 35 -10 35 -5
0 -10 -16 -10 -35z"/>
<path d="M450 184 c0 -8 5 -12 10 -9 6 4 8 11 5 16 -9 14 -15 11 -15 -7z"/>
<path d="M245 181 c-3 -5 -1 -12 5 -16 5 -3 10 1 10 9 0 18 -6 21 -15 7z"/>
<path d="M245 137 c-4 -10 -5 -21 -1 -24 10 -10 18 4 13 24 -4 17 -4 17 -12 0z"/>
<path d="M380 130 c0 -11 5 -20 10 -20 6 0 10 9 10 20 0 11 -4 20 -10 20 -5 0
-10 -9 -10 -20z"/>
<path d="M310 80 c0 -5 5 -10 10 -10 6 0 10 5 10 10 0 6 -4 10 -10 10 -5 0
-10 -4 -10 -10z"/>
</g>
</svg>
